<svg width="185" height="185" viewBox="0 0 185 185" fill="none" xmlns="http://www.w3.org/2000/svg">
<path d="M143.886 125.864L124.311 133.773L100.765 143.286C100.756 143.29 100.747 143.294 100.738 143.298L100.612 143.348C100.55 143.373 100.486 143.39 100.422 143.415C100.235 143.486 100.05 143.553 99.8579 143.611C99.7508 143.643 99.6412 143.668 99.5341 143.697C99.3723 143.739 99.2104 143.781 99.0447 143.813C98.9181 143.838 98.7914 143.856 98.6635 143.874C98.5147 143.897 98.3672 143.919 98.2184 143.935C98.0801 143.948 97.9443 143.954 97.8073 143.961C97.665 143.968 97.524 143.975 97.3817 143.975H97.3804C97.1403 143.975 96.8988 143.962 96.6586 143.942C96.6221 143.94 96.5855 143.938 96.549 143.935C96.3388 143.915 96.13 143.881 95.9198 143.846C95.852 143.835 95.7841 143.826 95.7162 143.813C95.6862 143.807 95.6588 143.797 95.6274 143.792C95.4695 143.76 95.3129 143.72 95.1562 143.679C95.0727 143.658 94.9866 143.637 94.9043 143.612C94.7138 143.555 94.5258 143.488 94.3404 143.416C94.2765 143.393 94.2125 143.376 94.1486 143.35L29.0177 117.035C24.6085 115.254 22.2198 110.275 23.9206 105.835C25.6527 101.309 30.7511 99.1047 35.2243 100.91L93.1109 124.298L94.082 124.689C96.1992 125.546 98.5656 125.546 100.684 124.689L153.018 103.545L163.922 99.1399C165.22 98.6256 165.093 97.1089 164.002 96.5254L103.659 69.3156C99.6686 67.5169 95.0975 67.5169 91.1073 69.3156L28.0009 97.7707C24.8773 98.8828 22.3099 101.274 21.0124 104.482C18.5676 110.535 21.5006 117.448 27.5532 119.894L92.6645 146.2C93.432 146.533 94.2386 146.785 95.0727 146.95C95.1249 146.96 95.1758 146.969 95.228 146.978C95.5126 147.031 95.7997 147.072 96.0921 147.104C96.1757 147.113 96.2605 147.123 96.344 147.131C96.6873 147.161 97.0319 147.181 97.3804 147.181H97.3817H97.383C98.9037 147.181 100.396 146.89 101.814 146.317L161.461 122.228C164.352 121.059 164.85 120.015 164.85 117.406L143.886 125.864ZM29.9953 97.2499C29.9444 97.259 29.8935 97.2694 29.8426 97.2786C29.8935 97.2681 29.9444 97.2577 29.9953 97.2499Z" fill="white"/>
<path d="M97.3752 139.931C96.4524 139.931 95.5309 139.795 94.6185 139.528C94.5871 139.519 94.5571 139.507 94.5258 139.495L31.7444 114.088C31.2314 113.882 30.9847 113.298 31.1923 112.787C31.3985 112.275 31.9833 112.028 32.4936 112.234L95.228 137.621C96.6677 138.036 98.0761 138.036 99.5289 137.62L160.103 113.195C160.615 112.986 161.198 113.237 161.404 113.749C161.611 114.262 161.364 114.844 160.851 115.05L100.231 139.495C100.201 139.507 100.17 139.517 100.138 139.528C99.2209 139.797 98.298 139.931 97.3752 139.931Z" fill="white"/>
<path d="M97.3752 132.962C96.4524 132.962 95.5309 132.828 94.6185 132.559C94.5871 132.55 94.5558 132.538 94.5258 132.526L31.7444 107.12C31.2314 106.914 30.986 106.331 31.1936 105.819C31.3998 105.306 31.9846 105.061 32.4949 105.266L95.2306 130.653C96.673 131.068 98.0814 131.07 99.5302 130.652L160.106 106.228C160.617 106.019 161.201 106.269 161.406 106.781C161.613 107.293 161.365 107.876 160.852 108.082L100.231 132.526C100.201 132.538 100.17 132.549 100.138 132.558C99.2209 132.828 98.298 132.962 97.3752 132.962Z" fill="white"/>
<path d="M92.8785 38.2799L48.4468 58.5692C47.3295 59.0796 47.3295 60.6668 48.4468 61.1772L92.8785 81.4664C94.2217 82.0799 95.7632 82.0799 97.1063 81.4664L141.537 61.1772C142.654 60.6668 142.654 59.0796 141.537 58.5692L97.1063 38.2799C95.7632 37.6665 94.2204 37.6665 92.8785 38.2799Z" fill="white"/>
<path d="M94.7542 105.48C75.2142 105.48 60.4789 98.8307 60.4789 90.0122V66.9609L91.7651 81.2472C92.7846 81.7132 93.8705 81.9482 94.9905 81.9482C96.1117 81.9482 97.1977 81.7132 98.2184 81.2472L129.028 67.1789V90.0122C129.03 98.8307 114.296 105.48 94.7542 105.48Z" fill="white"/>
<path d="M99.2548 83.5144C97.9065 84.1292 96.4733 84.4412 94.9918 84.4412C93.5116 84.4412 92.0771 84.1292 90.7313 83.5144L62.9706 70.8389V90.0134C62.9706 97.1794 77.2008 102.988 94.7542 102.988C112.308 102.988 126.538 97.1781 126.538 90.0134V71.0555L99.2548 83.5144Z" fill="#2A2A29"/>
</svg>
