<svg width="129" height="121" viewBox="0 0 129 121" fill="none" xmlns="http://www.w3.org/2000/svg">
<path d="M13.8054 41.836C16.7379 47.3663 21.0163 52.2357 25.7005 56.6257C26.9905 57.8332 28.9527 59.491 31.0076 61.1704C30.9962 61.1678 30.9847 61.1653 30.9746 61.1628C35.1616 64.5837 39.7165 68.087 39.738 68.0693C39.738 68.0693 39.7444 68.0655 39.7457 68.0655C39.7824 68.0921 39.8091 68.1098 39.8103 68.1098C39.8408 68.1365 50.3064 60.715 54.3768 57.199C59.2373 52.9993 63.7097 48.3049 66.8656 42.8951C72.7294 32.8455 67.1268 17.5725 53.8085 16.2027C48.7615 15.6839 42.3446 18.2981 40.7376 22.6525C39.3093 18.2372 31.6075 15.3845 26.544 15.7016C13.1801 16.5388 8.35629 31.5606 13.8054 41.836ZM28.094 39.3905C28.0953 39.0683 28.3693 38.7969 28.6902 38.7981C29.6542 38.8019 30.6182 38.8045 31.5834 38.8083C33.5051 38.8146 35.4267 38.821 37.3496 38.8286C37.3509 38.5812 37.3509 38.3339 37.3522 38.0866C37.361 35.447 37.3699 32.8087 37.3788 30.1691C37.3801 29.847 37.654 29.5755 37.975 29.5768C39.615 29.5819 41.2551 29.5882 42.8951 29.5933C43.2173 29.5945 43.4887 29.8685 43.4875 30.1894C43.4837 31.1534 43.4811 32.1174 43.4773 33.0827C43.471 35.0043 43.4646 36.926 43.457 38.8489C43.7044 38.8501 43.9517 38.8501 44.199 38.8514C46.8386 38.8603 49.4769 38.8692 52.1165 38.878C52.4386 38.8793 52.7101 39.1533 52.7088 39.4742C52.7037 41.1143 52.6974 42.7543 52.6923 44.3944C52.6911 44.7165 52.4171 44.988 52.0962 44.9867C51.1322 44.9829 50.1682 44.9804 49.2029 44.9766C47.2813 44.9702 45.3596 44.9639 43.4367 44.9563C43.4355 45.2036 43.4355 45.451 43.4342 45.6983C43.4253 48.3379 43.4164 50.9762 43.4076 53.6157C43.4063 53.8034 43.3353 53.943 43.2274 54.0394C43.131 54.1421 42.9928 54.2093 42.8114 54.2081C41.1713 54.203 39.5313 54.1966 37.8912 54.1916C37.5691 54.1903 37.2976 53.9163 37.2989 53.5954C37.3027 52.6314 37.3052 51.6674 37.309 50.7022C37.3154 48.7805 37.3217 46.8589 37.3293 44.936C37.082 44.9347 36.8347 44.9347 36.5873 44.9334C33.9478 44.9246 31.3095 44.9157 28.6699 44.9068C28.4822 44.9055 28.3426 44.8345 28.2462 44.7267C28.1435 44.6303 28.0763 44.492 28.0775 44.3107C28.0826 42.6706 28.0877 41.0305 28.094 39.3905Z" fill="white"/>
<path d="M115.301 5.62414C107.36 5.22206 100.596 11.3333 100.193 19.2748C99.824 26.5618 104.942 32.8544 111.923 34.152L110.395 64.3224C109.437 64.694 108.724 65.412 108.696 66.4914C108.652 68.2228 108.478 69.9541 108.282 71.6766C108.069 73.5501 107.796 75.4197 107.466 77.2818C107.371 77.8208 107.268 78.3599 107.166 78.8977C107.154 78.9573 107.145 79.0043 107.139 79.041C107.134 79.0626 107.129 79.0867 107.122 79.1171C107.056 79.4292 106.992 79.7425 106.925 80.0545C106.667 81.2392 106.384 82.4214 106.076 83.5984C104.73 88.7254 102.901 93.8028 100.25 98.6177C100.117 98.86 99.98 99.0997 99.843 99.3407C99.9039 99.2303 99.6007 99.7529 99.5068 99.9064C99.1238 100.534 98.7255 101.156 98.3082 101.771C97.5256 102.926 96.6796 104.057 95.76 105.151C95.33 105.664 94.8848 106.167 94.4218 106.662C94.2049 106.894 93.9829 107.125 93.7584 107.353C93.6087 107.504 93.4565 107.654 93.3056 107.805C93.2587 107.852 93.1559 107.948 93.0785 108.02C92.0854 108.922 91.0415 109.787 89.9126 110.592C89.3545 110.989 88.7786 111.37 88.1863 111.734C87.906 111.907 87.618 112.07 87.3352 112.239C88.1038 111.783 86.8773 112.479 86.6769 112.58C85.3425 113.255 83.932 113.844 82.4619 114.33C82.3135 114.378 82.1613 114.422 82.0155 114.474C81.9964 114.48 81.9799 114.487 81.9634 114.492C81.9558 114.494 81.9482 114.496 81.9406 114.498C81.5918 114.588 81.2468 114.687 80.8955 114.773C80.0634 114.978 79.2186 115.15 78.3637 115.291C77.5659 115.423 76.763 115.514 75.955 115.602C75.9017 115.608 75.8205 115.614 75.7444 115.619C75.8028 115.616 75.8738 115.612 75.9601 115.606C75.8396 115.613 75.7191 115.622 75.5986 115.63C75.5542 115.632 75.5275 115.633 75.5339 115.633C75.4996 115.636 75.4641 115.639 75.4299 115.64C74.8883 115.664 74.3492 115.689 73.8076 115.697C71.9075 115.726 70.0404 115.584 68.153 115.414C68.1429 115.413 68.1302 115.411 68.1187 115.41C67.9412 115.385 67.7649 115.361 67.5885 115.334C67.1941 115.274 66.8009 115.209 66.4102 115.137C65.4804 114.968 64.5609 114.763 63.6552 114.525C62.9348 114.335 62.2397 114.108 61.5319 113.891C61.5154 113.886 61.5014 113.882 61.4875 113.877C61.4735 113.872 61.4596 113.865 61.4444 113.859C61.2985 113.801 61.1463 113.749 60.9992 113.692C60.559 113.523 60.1252 113.345 59.6965 113.159C59.061 112.882 58.4408 112.587 57.8345 112.272C57.5009 112.1 57.1711 111.921 56.8464 111.737C56.6789 111.643 55.7758 111.08 55.994 111.23C54.8461 110.471 53.7578 109.671 52.7481 108.802C52.2649 108.386 51.7981 107.957 51.3478 107.519C51.2235 107.399 50.6058 106.753 50.8519 107.021C50.6159 106.766 50.38 106.511 50.153 106.251C48.2897 104.125 46.7968 101.841 45.508 99.4878C45.4801 99.4371 45.4535 99.3851 45.4269 99.3331C45.3926 99.2671 45.3495 99.1834 45.3241 99.1327C45.1897 98.8587 45.0527 98.586 44.922 98.3107C44.6151 97.6677 44.3259 97.0195 44.0519 96.3675C43.5293 95.1232 43.0626 93.865 42.6452 92.5991C42.5501 92.3124 42.4689 92.0232 42.3789 91.7353C48.5586 91.3053 54.5353 88.8814 59.491 85.1345C74.4456 73.8291 80.709 53.9988 80.7889 35.8757C80.8333 25.7855 80.7889 15.6953 80.7889 5.60511C80.7889 3.25602 79.0334 2.03707 77.2107 1.94575C77.1448 1.9356 77.0801 1.92165 77.0129 1.92165C74.627 1.91531 72.2411 1.91023 69.8539 1.90389L69.8577 0.0241063L60.2013 0.00127386C59.2335 -0.00126296 58.4471 0.781348 58.4458 1.74915L58.4395 5.31972C58.4382 6.28625 59.2196 7.0714 60.1861 7.07394L69.8451 7.09677L69.8476 5.44022C70.9663 5.44276 72.0838 5.44529 73.2025 5.44783C73.2013 5.49984 73.1949 5.55057 73.1949 5.60385C73.1949 14.8189 73.1949 24.0326 73.1949 33.2476C73.1949 47.7887 70.1913 63.0629 60.1886 74.2312C55.6363 79.3138 49.5835 83.464 42.63 84.1299C35.806 84.7831 29.2026 82.1512 24.0973 77.6953C12.1996 67.3133 7.61554 50.6641 7.59398 35.3735C7.58002 25.4507 7.59398 15.5279 7.59398 5.60385C7.59398 5.54931 7.58763 5.49983 7.58637 5.44656C8.58714 5.44402 9.58919 5.44149 10.59 5.43895L10.5925 7.0955L20.2515 7.07267C21.218 7.07013 22.0006 6.28498 21.9981 5.31845L21.9917 1.74788C21.9904 0.780079 21.204 -0.00253067 20.2362 6.14992e-06L10.5798 0.0228386L10.5836 1.90262C8.19774 1.90896 5.81186 1.91404 3.42471 1.92038C3.25982 1.92038 3.10253 1.96097 2.95286 2.02059C1.37369 2.33008 0 3.52238 0 5.60385C0 15.2324 0 24.8609 0 34.4906C0 51.0079 4.44325 68.3078 16.1063 80.5504C21.2649 85.9653 27.8213 89.9316 35.1604 91.3015C37.3103 99.2354 41.1485 107.055 48.4191 112.962C58.8999 121.477 77.0192 123.703 89.8555 117.331C102.111 111.247 108.071 99.9039 111.464 89.4344C113.019 84.636 114.088 79.7349 114.813 74.8147C115.192 72.2373 115.556 69.6218 115.602 67.0228C115.604 66.9024 115.612 66.7819 115.616 66.6626C115.641 65.672 115.072 64.9566 114.252 64.5215L115.782 34.3448C122.86 33.7588 128.586 28.0167 128.956 20.7296C129.354 12.7907 123.241 6.02623 115.301 5.62414ZM124.455 20.5039C124.212 25.3023 120.588 29.1265 116.008 29.7937L116.195 26.0938L112.342 25.8984L112.154 29.5984C107.664 28.472 104.445 24.3015 104.688 19.5031C104.965 14.0451 109.614 9.84414 115.073 10.1207C120.532 10.3959 124.732 15.0459 124.455 20.5039Z" fill="white"/>
<path d="M114.647 16.9689C112.778 16.8738 111.186 18.3121 111.093 20.1805C110.997 22.0489 112.436 23.6407 114.304 23.7346C116.172 23.8297 117.764 22.3914 117.858 20.523C117.953 18.6559 116.515 17.064 114.647 16.9689Z" fill="white"/>
</svg>
