<svg width="99" height="127" viewBox="0 0 99 127" fill="none" xmlns="http://www.w3.org/2000/svg">
<path d="M49.9452 0C34.735 0 22.3594 12.3766 22.3594 27.59V53.4995H8.37308C3.74771 53.4995 0 57.2472 0 61.8726V118.627C0 123.252 3.74771 127 8.37308 127H90.2466C94.871 127 98.6208 123.252 98.6208 118.627V61.8726C98.6208 57.2472 94.871 53.4995 90.2466 53.4995H77.5362V27.59C77.5362 12.3766 65.1607 0 49.9452 0ZM63.5811 53.4995H36.3166V27.59C36.3166 20.0727 42.428 13.9551 49.9452 13.9551C57.4625 13.9551 63.5811 20.0727 63.5811 27.59V53.4995Z" fill="white"/>
<path d="M40.5156 117.378C42.69 117.974 54.6798 118.018 56.8438 117.488C63.3357 115.902 65.7815 112.269 66.4033 108.579C69.0446 92.8817 55.1956 82.4528 52.9474 81.2684C52.8569 81.2206 52.7123 81.1551 52.5657 81.1249C52.3785 81.0864 52.1945 81.0916 52.1945 81.0916L49.4076 81.0802L46.6207 81.0916C46.6207 81.0916 46.4367 81.0875 46.2495 81.1249C46.1029 81.1551 45.9583 81.2206 45.8679 81.2684C43.6197 82.4528 29.8715 93.4672 32.5138 109.164C33.0795 112.533 34.8286 115.818 40.5156 117.378Z" fill="#2A2A29"/>
<path d="M46.7455 80.5904L51.7816 80.5748C51.7816 80.5748 51.974 80.556 52.1331 80.5051C52.2704 80.4625 52.3744 80.3886 52.4076 80.3564C52.8818 79.8957 52.4503 79.3498 52.1851 79.2541C51.9428 79.1429 51.7993 79.1782 51.7993 79.1782C51.7993 79.1782 46.9192 79.1699 46.7632 79.1855C46.6072 79.2011 46.5157 79.2333 46.3368 79.3498C46.2443 79.4101 46.0186 79.6441 46.0082 79.9061C45.9989 80.1505 46.1237 80.3886 46.3212 80.4978C46.5188 80.607 46.7455 80.5904 46.7455 80.5904Z" fill="#2A2A29"/>
<path d="M46.6946 78.5438C46.8038 78.549 51.8274 78.5438 51.8274 78.5438C51.8274 78.5438 52.0208 78.5282 52.1009 78.4908C52.1809 78.4534 52.2797 78.367 52.3348 78.3057C53.0825 77.4624 54.3564 74.4114 54.7848 69.5042C54.7588 69.4012 54.7869 69.3045 54.7016 69.1933C54.6163 69.082 54.2222 68.7482 53.1959 69.5115C52.1695 70.2747 52.0832 69.082 51.1431 69.1142C50.2021 69.1465 50.253 69.8297 49.2267 69.8297C48.2003 69.8297 48.4052 69.1142 47.4474 69.1298C46.4897 69.1454 46.7632 69.8931 45.8731 69.8297C44.9829 69.7662 44.8467 68.8751 43.8879 69.1298C42.9562 69.3773 43.8911 73.8831 46.0394 78.2464C46.0842 78.2911 46.1996 78.392 46.3348 78.4502C46.5053 78.5199 46.5864 78.5386 46.6946 78.5438Z" fill="#2A2A29"/>
<path d="M48.9168 104.952C47.5119 104.952 46.2079 104.45 45.3303 103.874L44.7282 105.554C45.6058 106.18 47.0856 106.632 48.5404 106.657V109.165H50.1199V106.557C52.703 106.156 54.0819 104.299 54.0819 102.295C54.0819 100.063 52.7779 98.7829 50.1948 97.7305C48.0131 96.803 47.0856 96.151 47.0856 94.8719C47.0856 93.8435 47.8125 92.6903 49.7435 92.6903C51.348 92.6903 52.3765 93.2664 52.9037 93.5679L53.5307 91.9124C52.7789 91.4861 51.7505 91.0857 50.2707 91.0348V88.6015H48.6911V91.1086C46.4086 91.485 44.9289 93.0646 44.9289 95.1464C44.9289 97.3281 46.5095 98.5063 49.0665 99.5098C50.9227 100.262 51.9002 101.115 51.9002 102.494C51.9002 103.924 50.6971 104.952 48.9168 104.952Z" fill="#2A2A29"/>
<path d="M67.0439 109.11C70.8665 109.284 76.5702 109.21 77.9116 108.882C83.5332 107.51 85.6514 104.363 86.189 101.167C88.4768 87.5752 76.4849 78.545 74.5372 77.5196C74.4592 77.478 74.3334 77.4209 74.2066 77.3959C74.0443 77.3626 73.8852 77.3668 73.8852 77.3668L71.4717 77.3564L69.0581 77.3668C69.0581 77.3668 68.899 77.3626 68.7368 77.3959C68.6099 77.4219 68.4841 77.4791 68.4061 77.5196C67.3163 78.0937 63.109 81.3329 60.0154 86.4563C60.7194 87.255 61.4223 88.1232 62.0972 89.055C64.0823 91.7982 65.5382 94.689 66.4262 97.6464C67.5118 101.261 67.7448 104.98 67.1188 108.699C67.0969 108.838 67.0709 108.975 67.0439 109.11Z" fill="#2A2A29"/>
<path d="M69.1673 76.9321L73.5285 76.9185C73.5285 76.9185 73.6949 76.9029 73.8332 76.8582C73.9518 76.8208 74.0423 76.7574 74.0714 76.7293C74.4821 76.331 74.1078 75.8579 73.879 75.7747C73.6689 75.678 73.5441 75.7092 73.5441 75.7092C73.5441 75.7092 69.3181 75.7019 69.1829 75.7154C69.0488 75.7289 68.9687 75.757 68.8138 75.8579C68.7337 75.9099 68.5382 76.1116 68.5288 76.3393C68.5205 76.5504 68.6287 76.7574 68.8002 76.852C68.9708 76.9466 69.1673 76.9321 69.1673 76.9321Z" fill="white"/>
<path d="M69.1226 75.1592C69.2162 75.1644 73.567 75.1592 73.567 75.1592C73.567 75.1592 73.7345 75.1456 73.8041 75.1134C73.8738 75.0812 73.9591 75.0063 74.0069 74.9522C74.6547 74.2222 75.7581 71.5799 76.1282 67.331C76.1064 67.2416 76.1303 67.1573 76.0565 67.0617C75.9827 66.9649 75.6416 66.6759 74.7525 67.3372C73.8634 67.9986 73.7896 66.9649 72.9743 66.993C72.159 67.0201 72.2038 67.6128 71.3147 67.6128C70.4256 67.6128 70.6034 66.993 69.7736 67.0065C68.9438 67.0201 69.1808 67.6679 68.4103 67.6128C67.6397 67.5577 67.5212 66.7861 66.6914 67.0065C65.8844 67.2208 66.6945 71.1213 68.5538 74.9002C68.5933 74.9387 68.6921 75.0271 68.8096 75.076C68.9583 75.1394 69.029 75.155 69.1226 75.1592Z" fill="#2A2A29"/>
<path d="M71.0474 98.0269C69.8308 98.0269 68.7015 97.5922 67.9413 97.0931L67.4203 98.5479C68.1805 99.0907 69.4616 99.4817 70.7209 99.5035V101.675H72.0894V99.4162C74.3261 99.0689 75.5199 97.4612 75.5199 95.7246C75.5199 93.7915 74.3906 92.684 72.1538 91.772C70.2644 90.9693 69.4616 90.4046 69.4616 89.2971C69.4616 88.406 70.0918 87.4077 71.7639 87.4077C73.1532 87.4077 74.0433 87.9068 74.4998 88.1678L75.0426 86.7349C74.3917 86.3657 73.5005 86.0184 72.2194 85.9747V83.868H70.8519V86.0392C68.8751 86.3647 67.594 87.7332 67.594 89.5363C67.594 91.4258 68.9625 92.4459 71.1764 93.3142C72.783 93.9651 73.6305 94.7045 73.6305 95.8983C73.6305 97.1368 72.5885 98.0269 71.0474 98.0269Z" fill="white"/>
<path d="M48.4252 105.231C47.2086 105.231 46.0793 104.796 45.3191 104.297L44.7981 105.752C45.5583 106.294 46.8394 106.685 48.0987 106.707V108.879H49.4672V106.62C51.7039 106.273 52.8977 104.665 52.8977 102.928C52.8977 100.995 51.7684 99.8878 49.5316 98.9759C47.6422 98.1731 46.8394 97.6084 46.8394 96.501C46.8394 95.6098 47.4696 94.6115 49.1417 94.6115C50.531 94.6115 51.4211 95.1106 51.8776 95.3716L52.4204 93.9387C51.7694 93.5695 50.8783 93.2222 49.5971 93.1785V91.0718H48.2297V93.243C46.2529 93.5685 44.9718 94.937 44.9718 96.7401C44.9718 98.6296 46.3403 99.6497 48.5542 100.518C50.1608 101.169 51.0083 101.908 51.0083 103.102C51.0083 104.341 49.9663 105.231 48.4252 105.231Z" fill="white"/>
<path d="M36.9072 89.0562C37.5821 88.1234 38.2851 87.2562 38.9891 86.4576C35.8954 81.3341 31.6881 78.0938 30.5983 77.5209C30.5203 77.4793 30.3945 77.4221 30.2676 77.3971C30.1054 77.3638 29.9463 77.368 29.9463 77.368L27.5328 77.3576L25.1192 77.368C25.1192 77.368 24.9601 77.3638 24.7979 77.3971C24.671 77.4231 24.5462 77.4803 24.4672 77.5209C22.5195 78.5462 10.5277 87.5765 12.8154 101.169C13.353 104.364 15.4713 107.51 21.0928 108.884C22.4343 109.211 28.138 109.285 31.9606 109.111C31.9325 108.975 31.9075 108.839 31.8847 108.7C31.2586 104.981 31.4916 101.262 32.5772 97.6477C33.4653 94.6892 34.9221 91.7994 36.9072 89.0562Z" fill="#2A2A29"/>
<path d="M25.4759 76.9175L29.8361 76.931C29.8361 76.931 30.0326 76.9456 30.2031 76.851C30.3747 76.7563 30.4829 76.5504 30.4746 76.3383C30.4652 76.1106 30.2697 75.9088 30.1896 75.8568C30.0347 75.756 29.9557 75.7279 29.8205 75.7144C29.6853 75.7009 25.4592 75.7081 25.4592 75.7081C25.4592 75.7081 25.3345 75.678 25.1244 75.7737C24.8946 75.8569 24.5213 76.329 24.931 76.7283C24.9601 76.7563 25.0495 76.8198 25.1691 76.8572C25.3095 76.9019 25.4759 76.9175 25.4759 76.9175Z" fill="#2A2A29"/>
<path d="M25.1993 75.1134C25.2679 75.1457 25.4364 75.1592 25.4364 75.1592C25.4364 75.1592 29.7872 75.1644 29.8808 75.1592C29.9754 75.155 30.0461 75.1384 30.1917 75.077C30.3092 75.0271 30.408 74.9398 30.4475 74.9013C32.3079 71.1234 33.1179 67.2218 32.311 67.0076C31.4812 66.7872 31.3626 67.5587 30.5921 67.6139C29.8215 67.669 30.0586 67.0222 29.2288 67.0076C28.399 66.9941 28.5768 67.6139 27.6877 67.6139C26.7986 67.6139 26.8433 67.0222 26.0281 66.9941C25.2138 66.966 25.139 67.9997 24.2499 67.3383C23.3608 66.678 23.0197 66.966 22.9459 67.0627C22.872 67.1594 22.896 67.2426 22.8731 67.3321C23.2443 71.581 24.3466 74.2233 24.9944 74.9533C25.0443 75.0063 25.1306 75.0823 25.1993 75.1134Z" fill="#2A2A29"/>
<path d="M27.1106 98.0271C25.8939 98.0271 24.7646 97.5925 24.0055 97.0933L23.4845 98.5481C24.2447 99.0909 25.5258 99.4819 26.7851 99.5038V101.675H28.1536V99.4164C30.3903 99.0691 31.5841 97.4614 31.5841 95.7249C31.5841 93.7917 30.4548 92.6843 28.218 91.7723C26.3286 90.9695 25.5258 90.4049 25.5258 89.2974C25.5258 88.4062 26.156 87.4079 27.827 87.4079C29.2163 87.4079 30.1065 87.9071 30.563 88.1681L31.1058 86.7351C30.4548 86.366 29.5647 86.0187 28.2836 85.975V83.8682H26.9161V86.0395C24.9393 86.3649 23.6582 87.7334 23.6582 89.5366C23.6582 91.426 25.0267 92.4461 27.2416 93.3144C28.8482 93.9654 29.6957 94.7047 29.6957 95.8985C29.6947 97.137 28.6527 98.0271 27.1106 98.0271Z" fill="#2A2A29"/>
<path d="M26.3678 99.215C25.1511 99.215 24.0218 98.7804 23.2617 98.2812L22.7407 99.736C23.5009 100.279 24.782 100.67 26.0413 100.692V102.863H27.4097V100.604C29.6465 100.257 30.8403 98.6494 30.8403 96.9128C30.8403 94.9796 29.711 93.8722 27.4742 92.9602C25.5848 92.1574 24.782 91.5928 24.782 90.4853C24.782 89.5941 25.4122 88.5958 27.0843 88.5958C28.4735 88.5958 29.3637 89.095 29.8202 89.356L30.363 87.923C29.712 87.5539 28.8209 87.2066 27.5397 87.1629V85.0561H26.1723V87.2274C24.1955 87.5528 22.9144 88.9213 22.9144 90.7245C22.9144 92.6139 24.2828 93.634 26.4967 94.5023C28.1033 95.1533 28.9508 95.8926 28.9508 97.0864C28.9508 98.3249 27.9089 99.215 26.3678 99.215Z" fill="white"/>
</svg>
