<svg width="16" height="16" viewBox="0 0 16 16" fill="none" xmlns="http://www.w3.org/2000/svg">
<path d="M7.00234 2.37267L7.66298 1.71203C7.94271 1.4323 8.39504 1.4323 8.6718 1.71203L14.4569 7.49412C14.7366 7.77385 14.7366 8.22618 14.4569 8.50293L8.6718 14.288C8.39207 14.5677 7.93973 14.5677 7.66298 14.288L7.00234 13.6274C6.71963 13.3447 6.72558 12.8834 7.01424 12.6066L10.6002 9.19036H2.04753C1.65175 9.19036 1.33333 8.87194 1.33333 8.47615V7.52388C1.33333 7.12809 1.65175 6.80967 2.04753 6.80967H10.6002L7.01424 3.39339C6.72261 3.11663 6.71666 2.65537 7.00234 2.37267Z" fill="white"/>
</svg>
