<svg width="102" height="116" viewBox="0 0 102 116" fill="none" xmlns="http://www.w3.org/2000/svg">
<path d="M58.5678 77.5513C67.6383 80.0471 77.7541 77.8787 85.0856 70.9387C93.3172 63.1472 95.7351 51.5188 92.1909 41.4767C82.3593 37.3893 70.6172 39.1662 62.3836 46.9577C55.0531 53.8977 52.3341 63.8798 54.3289 73.0745L61.7425 67.2819L79.9909 53.0251L64.7562 70.4661L58.5678 77.5513Z" fill="white"/>
<path d="M59.571 112.352C67.7488 117.002 78.0877 117.387 86.9014 112.463C96.7961 106.934 101.999 96.2565 101.033 85.6524C92.5088 79.2734 80.6898 78.1082 70.793 83.6366C61.9815 88.5608 56.891 97.5681 56.5636 106.97L65.1741 103.179L86.3677 93.8471L67.312 107.005L59.571 112.352Z" fill="white"/>
<path d="M41.5762 112.352C33.3984 117.002 23.0594 117.387 14.2458 112.463C4.35107 106.934 -0.852079 96.2565 0.114234 85.6524C8.63842 79.2734 20.4573 78.1082 30.3542 83.6366C39.1657 88.5608 44.2562 97.5681 44.5836 106.97L35.9731 103.179L14.7795 93.8471L33.8352 107.005L41.5762 112.352Z" fill="white"/>
<path d="M47.3699 49.2641L48.0931 39.8841L49.8752 16.7958L52.4762 39.8052L53.5341 49.1546C61.4941 44.141 66.7151 35.2094 66.5362 25.1168C66.3351 13.7831 59.3793 4.15789 49.5762 0C39.9278 4.50104 33.3184 14.3694 33.5194 25.7042C33.6994 35.7957 39.2352 44.5367 47.3699 49.2641Z" fill="white"/>
<path d="M45.2962 71.9651C47.292 62.7715 44.572 52.7894 37.2405 45.8494C29.0089 38.0568 17.2647 36.281 7.43317 40.3673C3.89002 50.4094 6.30791 62.0378 14.5395 69.8304C21.871 76.7704 31.9868 78.9378 41.0584 76.443L34.8689 69.3567L19.6331 51.9168L37.8815 66.1746L45.2962 71.9651Z" fill="white"/>
</svg>
