<svg width="35" height="35" viewBox="0 0 35 35" fill="none" xmlns="http://www.w3.org/2000/svg">
<path fill-rule="evenodd" clip-rule="evenodd" d="M17.5 35C27.165 35 35 27.165 35 17.5C35 7.83502 27.165 0 17.5 0C7.83502 0 0 7.83502 0 17.5C0 27.165 7.83502 35 17.5 35Z" fill="black"/>
<path d="M13.4837 13.9671C14.303 13.9671 14.9672 13.3029 14.9672 12.4835C14.9672 11.6642 14.303 11 13.4837 11C12.6643 11 12.0001 11.6642 12.0001 12.4835C12.0001 13.3029 12.6643 13.9671 13.4837 13.9671Z" fill="#FFB001"/>
<path d="M14.7198 14.958H12.2473C12.1108 14.958 12 15.0688 12 15.2053V22.623C12 22.7595 12.1108 22.8703 12.2473 22.8703H14.7198C14.8563 22.8703 14.9671 22.7595 14.9671 22.623V15.2053C14.9671 15.0688 14.8563 14.958 14.7198 14.958Z" fill="#FFB001"/>
<path d="M22.088 14.5464C21.0313 14.1844 19.7094 14.5024 18.9167 15.0726C18.8895 14.9662 18.7926 14.8871 18.6774 14.8871H16.2048C16.0683 14.8871 15.9575 14.9979 15.9575 15.1344V22.5521C15.9575 22.6886 16.0683 22.7994 16.2048 22.7994H18.6774C18.8138 22.7994 18.9246 22.6886 18.9246 22.5521V17.2212C19.3242 16.8771 19.839 16.7673 20.2603 16.9463C20.6688 17.1189 20.9027 17.5402 20.9027 18.1015V22.5521C20.9027 22.6886 21.0135 22.7994 21.1499 22.7994H23.6225C23.759 22.7994 23.8698 22.6886 23.8698 22.5521V17.6035C23.8416 15.5715 22.8857 14.8194 22.088 14.5464Z" fill="#FFB001"/>
</svg>
