<svg width="162" height="91" viewBox="0 0 162 91" fill="none" xmlns="http://www.w3.org/2000/svg">
<path d="M42.6179 4.65897H52.6116V68.2548H42.6179V4.65897Z" fill="white"/>
<path d="M63.2394 64.9855C60.6348 62.2007 59.3332 58.2625 59.3332 53.1749V19.7403C59.3332 14.6527 60.6348 10.7158 63.2394 7.92972C65.8426 5.14495 69.5992 3.75123 74.5053 3.75123C79.4114 3.75123 83.1667 5.14495 85.7712 7.92972C88.3744 10.7158 89.6774 14.6527 89.6774 19.7403V53.1736C89.6774 58.2612 88.3744 62.1994 85.7712 64.9842C83.1667 67.7703 79.4114 69.1627 74.5053 69.1627C69.5992 69.164 65.8426 67.7716 63.2394 64.9855ZM79.6837 53.8104V19.1048C79.6837 14.925 77.9576 12.8358 74.5053 12.8358C71.053 12.8358 69.3269 14.925 69.3269 19.1048V53.8104C69.3269 57.9889 71.053 60.0794 74.5053 60.0794C77.9576 60.0794 79.6837 57.9902 79.6837 53.8104Z" fill="white"/>
<path d="M103.85 13.7449H93.402V4.65897H124.292V13.7449H113.845V68.2562H103.851V13.7449H103.85Z" fill="white"/>
<path d="M155.461 4.06502C154.881 2.68999 154.264 1.33632 153.611 0L151.761 0.901112C157.018 11.6437 159.969 23.7119 159.969 36.457C159.969 51.3848 155.92 65.3834 148.861 77.4142L150.646 78.4582C152.45 75.3757 154.057 72.1704 155.46 68.8503C159.799 58.591 162 47.6922 162 36.4583C162.001 25.2245 159.8 14.3257 155.461 4.06502Z" fill="white"/>
<path d="M147.465 7.44378C146.943 6.21292 146.393 4.99943 145.808 3.80329L143.96 4.70306C148.657 14.2989 151.292 25.0762 151.292 36.4583C151.292 49.7907 147.676 62.2942 141.372 73.0368L143.153 74.0767C144.769 71.3146 146.209 68.4444 147.466 65.4714C151.352 56.2814 153.324 46.5214 153.324 36.4583C153.323 26.3965 151.351 16.6338 147.465 7.44378Z" fill="white"/>
<path d="M138.316 7.45186L136.454 8.35965C140.608 16.8488 142.942 26.3859 142.942 36.457C142.942 48.2542 139.742 59.3159 134.164 68.8223L135.953 69.8676C141.835 59.8405 144.972 48.3891 144.972 36.4557C144.972 26.2377 142.671 16.3722 138.316 7.45186Z" fill="white"/>
<path d="M130.619 11.2045L128.763 12.1083C132.361 19.4641 134.383 27.7303 134.383 36.4584C134.383 46.6817 131.609 56.2695 126.775 64.5077L128.56 65.549C133.682 56.8182 136.414 46.8486 136.414 36.4584C136.414 27.5594 134.411 18.9715 130.619 11.2045Z" fill="white"/>
<path d="M6.53874 4.06502C7.11946 2.68999 7.73622 1.33632 8.38902 0L10.2393 0.901112C4.98215 11.6437 2.03051 23.7119 2.03051 36.457C2.03051 51.3848 6.07951 65.3834 13.1389 77.4142L11.354 78.4582C9.55046 75.3757 7.94314 72.1704 6.54007 68.8503C2.20138 58.591 6.06812e-07 47.6922 6.06812e-07 36.4583C-0.00133437 25.2245 2.20005 14.3257 6.53874 4.06502Z" fill="white"/>
<path d="M14.5353 7.44378C15.0572 6.21292 15.6073 4.99943 16.192 3.80329L18.0396 4.70306C13.3431 14.2989 10.7079 25.0762 10.7079 36.4583C10.7079 49.7907 14.3243 62.2942 20.6281 73.0368L18.8473 74.0767C17.2306 71.3146 15.7915 68.4444 14.5339 65.4714C10.6478 56.2814 8.67604 46.5214 8.67604 36.4583C8.67737 26.3965 10.6491 16.6338 14.5353 7.44378Z" fill="white"/>
<path d="M23.6852 7.45186L25.5475 8.35965C21.3931 16.8488 19.0595 26.3859 19.0595 36.457C19.0595 48.2542 22.2595 59.3159 27.837 68.8223L26.0482 69.8676C20.1662 59.8405 17.029 48.3891 17.029 36.4557C17.029 26.2377 19.3292 16.3722 23.6852 7.45186Z" fill="white"/>
<path d="M31.3827 11.2045L33.2384 12.1083C29.6406 19.4641 27.6181 27.7303 27.6181 36.4584C27.6181 46.6817 30.3922 56.2695 35.2262 64.5077L33.4413 65.549C28.319 56.8182 25.5876 46.8486 25.5876 36.4584C25.5876 27.5594 27.5887 18.9715 31.3827 11.2045Z" fill="white"/>
<path d="M33.2197 79.7597H34.9512V90.78H33.2197V79.7597Z" fill="white"/>
<path d="M36.2434 79.7597H38.4154L40.1002 86.3559H40.1322V79.7597H41.6754V90.78H39.8959L37.8174 82.7354H37.7853V90.78H36.2434V79.7597Z" fill="white"/>
<path d="M44.3187 81.3351H42.5085V79.7612H47.8618V81.3351H46.0515V90.7815H44.3201V81.3351H44.3187Z" fill="white"/>
<path d="M48.6961 79.7597H53.4193V81.3337H50.4276V84.2466H52.8052V85.8205H50.4276V89.2047H53.4193V90.7787H48.6961V79.7597Z" fill="white"/>
<path d="M54.4098 79.7597H56.9757C57.8674 79.7597 58.5189 79.9667 58.9274 80.3818C59.3373 80.797 59.5415 81.4338 59.5415 82.2949V82.9717C59.5415 84.1158 59.1637 84.8407 58.4081 85.1437V85.1758C58.8273 85.3012 59.125 85.5589 59.2972 85.9474C59.4708 86.3359 59.5575 86.8552 59.5575 87.5053V89.441C59.5575 89.7561 59.5682 90.0111 59.5896 90.2046C59.6109 90.3995 59.663 90.5904 59.7471 90.7787H57.9836C57.9208 90.5998 57.8781 90.4329 57.8581 90.2754C57.8367 90.1179 57.8261 89.8348 57.8261 89.425V87.4092C57.8261 86.9059 57.7446 86.5535 57.5818 86.3545C57.4189 86.1556 57.1385 86.0555 56.7394 86.0555H56.1413V90.7787H54.4098V79.7597ZM56.7714 84.4829C57.1172 84.4829 57.3775 84.3935 57.5511 84.2159C57.7246 84.037 57.8114 83.738 57.8114 83.3188V82.4684C57.8114 82.0692 57.7406 81.7809 57.5991 81.602C57.4576 81.4231 57.2347 81.335 56.9303 81.335H56.1427V84.4842H56.7714V84.4829Z" fill="white"/>
<path d="M60.755 79.7597H62.927L64.6118 86.3559H64.6438V79.7597H66.187V90.78H64.4075L62.3289 82.7354H62.2969V90.78H60.7537V79.7597H60.755Z" fill="white"/>
<path d="M67.4766 79.7597H72.1998V81.3337H69.2081V84.2466H71.5857V85.8205H69.2081V89.2047H72.1998V90.7787H67.4766V79.7597Z" fill="white"/>
<path d="M74.5454 81.3351H72.7351V79.7612H78.0884V81.3351H76.2782V90.7815H74.5467V81.3351H74.5454Z" fill="white"/>
<path d="M81.9919 90.214C81.5407 89.7307 81.3151 89.0485 81.3151 88.1675V82.3736C81.3151 81.4926 81.5407 80.8104 81.9919 80.3271C82.4431 79.8439 83.0933 79.6036 83.9436 79.6036C84.794 79.6036 85.4442 79.8452 85.8954 80.3271C86.3466 80.8104 86.5722 81.4926 86.5722 82.3736V88.1675C86.5722 89.0485 86.3466 89.7321 85.8954 90.214C85.4442 90.6972 84.794 90.9376 83.9436 90.9376C83.0933 90.9376 82.4431 90.6972 81.9919 90.214ZM84.8421 88.2769V82.2628C84.8421 81.5393 84.543 81.1762 83.945 81.1762C83.3469 81.1762 83.0479 81.5379 83.0479 82.2628V88.2769C83.0479 89.0005 83.3469 89.3636 83.945 89.3636C84.543 89.3636 84.8421 89.0018 84.8421 88.2769Z" fill="white"/>
<path d="M87.739 79.7597H92.3207V81.3337H89.4718V84.4041H91.7079V85.9781H89.4718V90.78H87.7403V79.7597H87.739Z" fill="white"/>
<path d="M97.0265 81.3351H95.2162V79.7612H100.569V81.3351H98.7593V90.7815H97.0278V81.3351H97.0265Z" fill="white"/>
<path d="M101.404 79.7597H103.135V84.2466H104.994V79.7597H106.725V90.78H104.994V85.8205H103.135V90.78H101.404V79.7597Z" fill="white"/>
<path d="M108.016 79.7597H109.748V90.78H108.016V79.7597Z" fill="white"/>
<path d="M111.038 79.7597H113.21L114.895 86.3559H114.927V79.7597H116.47V90.78H114.691L112.612 82.7354H112.58V90.78H111.037V79.7597H111.038Z" fill="white"/>
<path d="M118.295 90.2221C117.855 89.7442 117.635 89.0593 117.635 88.1676V82.3738C117.635 81.482 117.855 80.7971 118.295 80.3192C118.736 79.8413 119.377 79.6023 120.216 79.6023C121.056 79.6023 121.696 79.8413 122.137 80.3192C122.578 80.7971 122.798 81.482 122.798 82.3738V83.3189H121.162V82.2643C121.162 81.5407 120.863 81.1776 120.264 81.1776C119.666 81.1776 119.367 81.5394 119.367 82.2643V88.2944C119.367 89.0086 119.666 89.3651 120.264 89.3651C120.863 89.3651 121.162 89.0086 121.162 88.2944V86.1371H120.295V84.5631H122.798V88.1689C122.798 89.0607 122.578 89.7455 122.137 90.2234C121.697 90.7014 121.056 90.9403 120.216 90.9403C119.377 90.9377 118.736 90.7 118.295 90.2221Z" fill="white"/>
<path d="M124.263 90.222C123.833 89.7441 123.618 89.0592 123.618 88.1675V87.5373H125.255V88.2929C125.255 89.0072 125.554 89.3636 126.152 89.3636C126.445 89.3636 126.668 89.2768 126.821 89.1033C126.973 88.9297 127.049 88.6494 127.049 88.2609C127.049 87.799 126.943 87.3932 126.734 87.0407C126.524 86.6896 126.136 86.2664 125.568 85.7738C124.854 85.1437 124.356 84.575 124.073 84.0664C123.79 83.5578 123.649 82.9824 123.649 82.3429C123.649 81.4712 123.869 80.797 124.309 80.3204C124.75 79.8425 125.391 79.6036 126.23 79.6036C127.06 79.6036 127.687 79.8425 128.111 80.3204C128.536 80.7984 128.75 81.4832 128.75 82.375V82.8315H127.112V82.2642C127.112 81.8864 127.038 81.6114 126.891 81.4378C126.744 81.2643 126.53 81.1775 126.247 81.1775C125.668 81.1775 125.38 81.5299 125.38 82.2321C125.38 82.6313 125.487 83.0038 125.703 83.3495C125.918 83.6953 126.309 84.1158 126.877 84.6084C127.6 85.2385 128.099 85.8099 128.372 86.3238C128.644 86.8378 128.782 87.4412 128.782 88.1341C128.782 89.0365 128.559 89.7294 128.113 90.2126C127.667 90.6959 127.018 90.9362 126.169 90.9362C125.328 90.9375 124.693 90.6999 124.263 90.222Z" fill="white"/>
</svg>
