<svg width="149" height="149" viewBox="0 0 149 149" fill="none" xmlns="http://www.w3.org/2000/svg">
<path d="M82.4845 94.0264C91.5434 96.519 101.646 94.3533 108.968 87.4222C117.189 79.6407 119.604 68.0272 116.064 57.998C106.246 53.9159 94.5185 55.6904 86.2954 63.472C78.9743 70.4031 76.2588 80.3724 78.251 89.5553L85.6552 83.7701L103.88 69.5316L88.665 86.9502L82.4845 94.0264Z" fill="white"/>
<path d="M83.4864 128.783C91.6538 133.426 101.979 133.811 110.782 128.893C120.664 123.372 125.86 112.708 124.895 102.117C116.382 95.7463 104.578 94.5825 94.694 100.104C85.8938 105.022 80.8098 114.018 80.4828 123.408L89.0823 119.621L110.249 110.301L91.2175 123.442L83.4864 128.783Z" fill="white"/>
<path d="M65.5147 128.783C57.3473 133.426 47.0216 133.811 38.2193 128.893C28.3372 123.372 23.1408 112.708 24.1058 102.117C32.6191 95.7463 44.4229 94.5825 54.307 100.104C63.1073 105.022 68.1913 114.018 68.5182 123.408L59.9188 119.621L38.7523 110.301L57.7836 123.442L65.5147 128.783Z" fill="white"/>
<path d="M71.3009 65.7754L72.0232 56.4075L73.803 33.3487L76.4007 56.3286L77.4572 65.6661C85.407 60.6588 90.6214 51.7387 90.4426 41.6591C90.2419 30.3399 83.295 20.727 73.5044 16.5745C63.8684 21.0697 57.2674 30.9255 57.4682 42.2457C57.648 52.3243 63.1766 61.0541 71.3009 65.7754Z" fill="white"/>
<path d="M69.2299 88.4474C71.2232 79.2655 68.5067 69.2962 61.1845 62.3651C52.9635 54.5825 41.2344 52.809 31.4154 56.89C27.8768 66.9193 30.2916 78.5327 38.5126 86.3154C45.8348 93.2465 55.9376 95.411 64.9975 92.9195L58.816 85.8423L43.5997 68.4247L61.8247 82.6643L69.2299 88.4474Z" fill="white"/>
</svg>
