<svg width="169" height="169" viewBox="0 0 169 169" fill="none" xmlns="http://www.w3.org/2000/svg">
<path d="M57.484 145.165C56.0031 144.314 54.3444 143.667 53.0817 142.565C51.1929 140.917 50.7267 138.558 50.7375 136.101C50.7601 131.243 50.7434 126.385 50.7434 121.527C50.7434 92.0634 50.7458 62.6006 50.7398 33.1366C50.7398 30.9212 51.0594 28.8214 52.5105 27.028C54.2073 24.9306 56.3918 23.8503 59.0842 23.8431C64.3772 23.83 69.6702 23.8384 74.9645 23.8384C86.5784 23.8384 98.1922 23.8288 109.805 23.8443C113.85 23.8503 116.937 26.2064 117.96 30.0901C118.197 30.9903 118.252 31.9609 118.252 32.8993C118.266 67.2998 118.266 101.7 118.26 136.101C118.259 140.811 116.332 143.421 111.803 144.963C111.7 144.998 111.616 145.096 111.524 145.165C93.5097 145.165 75.4963 145.165 57.484 145.165ZM53.9915 84.487C53.9915 101.662 54.0261 118.837 53.9641 136.013C53.9509 139.76 56.2546 141.964 59.8497 141.938C74.0654 141.831 88.2823 141.895 102.499 141.893C105.106 141.893 107.712 141.922 110.318 141.864C112.606 141.811 114.544 140.058 114.874 137.807C114.982 137.069 115.011 136.314 115.011 135.567C115.017 103.743 115.017 71.9203 115.017 40.0966C115.017 37.6486 115.061 35.1995 114.994 32.7539C114.969 31.825 114.867 30.8246 114.492 29.9947C113.525 27.8496 111.708 27.0888 109.398 27.0936C94.4314 27.1234 79.4645 27.1079 64.4976 27.1103C62.5624 27.1103 60.6271 27.084 58.6931 27.1389C56.5945 27.1985 54.701 28.7105 54.2192 30.7328C54.0296 31.5281 54.001 32.3759 54.001 33.201C53.9879 50.2939 53.9915 67.3904 53.9915 84.487Z" fill="white"/>
<path d="M57.1573 84.1543C57.1573 69.1909 57.1573 54.2264 57.1573 39.2631C57.1573 37.1955 57.1811 37.1729 59.2952 37.1729C76.1175 37.1729 92.9398 37.1729 109.763 37.1729C111.813 37.1729 111.849 37.2062 111.85 39.194C111.85 69.1218 111.85 99.0496 111.85 128.977C111.85 130.872 111.794 130.928 109.952 130.928C92.9708 130.928 75.9911 130.928 59.0103 130.928C57.2336 130.928 57.1597 130.855 57.1597 129.047C57.1573 114.082 57.1573 99.1176 57.1573 84.1543ZM58.829 84.0231C58.829 98.079 58.8278 112.134 58.8302 126.19C58.8302 128.626 59.4872 129.286 61.9018 129.286C76.9474 129.287 91.9918 129.287 107.037 129.286C109.545 129.286 110.178 128.653 110.178 126.14C110.179 98.1076 110.179 70.0757 110.178 42.0438C110.178 39.43 109.592 38.8386 106.987 38.8386C92.0216 38.8374 77.0547 38.8374 62.089 38.8386C59.3894 38.8386 58.829 39.399 58.829 42.0927C58.8278 56.0699 58.829 70.0471 58.829 84.0231Z" fill="white"/>
<path d="M84.5 140.184C82.9618 140.184 81.4236 140.201 79.8866 140.179C78.042 140.151 76.6004 138.846 76.4478 137.106C76.2391 134.713 77.2455 132.954 79.3143 132.844C82.7686 132.66 86.2469 132.661 89.7012 132.847C91.7629 132.958 92.7704 134.727 92.5582 137.117C92.4032 138.861 90.9675 140.138 89.1134 140.185C89.074 140.186 89.0347 140.186 88.9953 140.186C87.4965 140.184 85.9988 140.184 84.5 140.184ZM84.4368 138.548C85.9368 138.548 87.4381 138.57 88.9369 138.54C90.2354 138.514 90.9055 137.821 90.9341 136.562C90.9651 135.196 90.3654 134.427 89.0144 134.402C86.0155 134.344 83.0131 134.346 80.0142 134.399C78.6573 134.423 78.0444 135.19 78.0718 136.544C78.0969 137.854 78.7801 138.523 80.1728 138.545C81.5941 138.566 83.0155 138.548 84.4368 138.548Z" fill="white"/>
<path d="M84.4833 32.3484C83.1061 32.3484 81.7253 32.4127 80.3565 32.309C79.9451 32.278 79.5695 31.7808 79.1784 31.4982C79.585 31.2359 79.9856 30.7565 80.3982 30.747C83.1502 30.679 85.9047 30.679 88.6567 30.7494C89.0573 30.7601 89.4449 31.2657 89.8372 31.5411C89.4294 31.8106 89.0359 32.2804 88.6102 32.3114C87.2413 32.4104 85.8593 32.3484 84.4833 32.3484Z" fill="white"/>
<path d="M66.4317 75.172C66.5259 72.4688 67.2354 68.9739 70.5037 66.7C71.553 65.9703 72.9314 65.5744 74.2156 65.3574C75.9696 65.0617 77.2145 65.8988 77.7821 67.5669C78.6048 69.9875 79.3405 72.439 80.0715 74.8894C80.4948 76.3107 80.0059 77.5317 79.0377 78.5798C78.4486 79.2178 77.7952 79.7961 77.2145 80.4388C76.5456 81.1793 76.3321 82.0175 76.9069 82.9237C79.523 87.0506 82.8211 90.499 87.0434 93.009C88.293 93.7518 89.0633 93.6421 90.1329 92.6668C90.7446 92.1087 91.3265 91.5161 91.9215 90.9402C93.1031 89.7943 94.4815 89.5832 95.9577 90.2104C98.2042 91.1655 100.434 92.1624 102.651 93.1831C104.651 94.1048 105.162 95.5321 104.184 97.5341C101.983 102.041 98.1195 103.702 93.3511 103.718C89.9075 103.729 86.7381 102.651 84.1995 100.413C79.6756 96.424 75.2256 92.3305 71.0069 88.0236C67.8673 84.8172 66.4639 80.7035 66.4317 75.172ZM67.8089 76.6029C67.9866 81.2007 69.7668 85.1022 73.0471 88.2764C76.5921 91.7057 80.2122 95.0575 83.8347 98.4045C86.471 100.842 89.5772 102.188 93.2045 102.395C97.5054 102.641 101.405 100.463 103.018 96.7662C103.545 95.5595 103.343 94.98 102.115 94.4196C99.9284 93.4227 97.7284 92.4569 95.532 91.4827C94.4744 91.0141 93.5431 91.2061 92.7239 92.0229C92.1087 92.6357 91.497 93.2546 90.8483 93.8317C89.5164 95.0158 88.1416 95.1898 86.6117 94.3099C81.9936 91.6532 78.4188 87.9258 75.6429 83.4186C74.9048 82.2202 75.1171 80.9622 75.9673 79.8855C76.6004 79.0842 77.3516 78.3747 78.0694 77.6438C78.7682 76.9331 79.04 76.0734 78.7634 75.1469C78.0432 72.7335 77.2717 70.3345 76.4716 67.9473C76.1485 66.9815 75.4533 66.5331 74.3647 66.6571C72.0812 66.9171 70.3761 68.0105 69.2362 69.9994C68.0641 72.0491 67.7147 74.2765 67.8089 76.6029Z" fill="white"/>
</svg>
