<svg width="148" height="97" viewBox="0 0 148 97" fill="none" xmlns="http://www.w3.org/2000/svg">
<path d="M146.223 68.2425L125.572 23.7876C125.713 23.667 125.842 23.534 125.96 23.3908C128.824 21.9851 130.766 19.274 130.811 15.8854C130.864 11.8882 127.226 7.49745 122.852 9.14552C120.69 9.96053 120.465 13.5295 122.449 14.6849C123.02 15.0175 124.264 15.3105 124.629 14.5181C125.132 13.428 123.393 13.9398 123.393 13.9398C123.36 13.8992 123.331 13.8575 123.303 13.8158C123.304 13.8158 123.306 13.8169 123.307 13.8169C122.853 13.1439 122.96 12.3154 123.394 11.6841C123.394 11.6841 123.394 11.6841 123.394 11.683C123.414 11.6548 123.435 11.6255 123.455 11.5985C123.457 11.5951 123.459 11.5917 123.462 11.5894C123.481 11.5646 123.501 11.5398 123.521 11.515C123.526 11.5094 123.53 11.5038 123.536 11.4981C123.554 11.4767 123.573 11.4542 123.592 11.4339C123.599 11.426 123.607 11.4192 123.614 11.4113C123.632 11.3922 123.65 11.373 123.668 11.355C123.677 11.3459 123.687 11.3369 123.696 11.3279C123.713 11.311 123.73 11.2952 123.748 11.2794C123.759 11.2693 123.772 11.2591 123.783 11.249C123.799 11.2343 123.816 11.2208 123.833 11.2073C123.846 11.196 123.861 11.1859 123.874 11.1746C123.89 11.1622 123.905 11.1509 123.92 11.1385C123.936 11.1273 123.953 11.116 123.969 11.1047C123.984 11.0946 123.998 11.0844 124.013 11.0743C124.031 11.0619 124.05 11.0506 124.068 11.0393C124.082 11.0314 124.095 11.0224 124.109 11.0145C124.13 11.0021 124.153 10.9897 124.175 10.9773C124.186 10.9717 124.197 10.9649 124.208 10.9593C124.242 10.9413 124.276 10.9255 124.31 10.9086C126.571 9.87711 128.369 12.7539 127.838 14.7266C127.781 14.934 127.718 15.1324 127.646 15.3207C127.599 15.4458 127.548 15.5676 127.494 15.6837C127.467 15.7423 127.439 15.7998 127.41 15.8561C126.125 18.388 123.288 18.7803 120.699 17.981C119.95 17.7499 119.223 17.4197 118.56 17.0127C115.435 15.0952 112.587 12.7584 109.601 10.6335C108.036 9.5209 106.434 8.46577 104.735 7.56058C96.5583 3.20144 86.2246 2.89933 77.5188 6.13572C77.5188 6.13572 77.5188 6.13572 77.5188 6.13459C77.503 6.14022 77.4872 6.14699 77.4714 6.15262C77.007 6.32622 76.5482 6.50884 76.0939 6.70273C76.0612 6.71626 76.0285 6.73091 75.9958 6.74444C75.7794 6.83688 75.5652 6.93269 75.351 7.02964C75.3127 7.04767 75.2744 7.06458 75.2349 7.08262C75.1594 7.11756 75.0827 7.15251 75.0072 7.18745L74.8415 3.58358C75.7253 3.31642 76.3543 2.64344 76.3543 1.85436C76.3543 0.82967 75.298 0 73.996 0C72.6929 0 71.6378 0.82967 71.6378 1.85436C71.6378 2.64344 72.2657 3.31642 73.1506 3.58358L72.9849 7.18745C72.9094 7.15138 72.8327 7.11756 72.7572 7.08262C72.7188 7.06458 72.6805 7.04655 72.6411 7.02964C72.428 6.93269 72.2127 6.83688 71.9963 6.74444C71.9636 6.72978 71.9309 6.71626 71.8971 6.70273C71.4439 6.50997 70.9851 6.32622 70.5207 6.15375C70.5038 6.14811 70.488 6.14135 70.4711 6.13459C70.4711 6.13459 70.4711 6.13459 70.4711 6.13572C61.7652 2.89933 51.4315 3.20144 43.2544 7.56058C38.3113 10.195 34.1911 14.0897 29.4307 17.0127C29.3281 17.0758 29.2255 17.1367 29.1196 17.1953C26.9146 18.4342 24.1089 18.8344 22.1711 17.6248C21.2501 17.0499 20.5253 16.112 20.1521 14.7277C19.6212 12.755 21.4203 9.87824 23.6794 10.9097C23.7143 10.9255 23.7481 10.9424 23.7819 10.9593C23.7932 10.9649 23.8045 10.9717 23.8158 10.9785C23.8372 10.9909 23.8597 11.0021 23.8811 11.0145C23.8947 11.0224 23.9082 11.0314 23.9217 11.0405C23.9398 11.0517 23.9589 11.063 23.977 11.0754C23.9916 11.0855 24.0074 11.0957 24.0221 11.107C24.0378 11.1182 24.0536 11.1284 24.0694 11.1408C24.0852 11.1532 24.101 11.1656 24.1167 11.178C24.1303 11.1881 24.1438 11.1994 24.1573 11.2095C24.1742 11.2231 24.1911 11.2377 24.2081 11.2524C24.2193 11.2625 24.2306 11.2715 24.2419 11.2817C24.2599 11.2986 24.2779 11.3144 24.2949 11.3313C24.3039 11.3403 24.3129 11.3482 24.3219 11.3572C24.3411 11.3764 24.3591 11.3955 24.3783 11.4147C24.385 11.4215 24.3918 11.4282 24.3986 11.4361C24.4189 11.4575 24.438 11.4801 24.4572 11.5026C24.4617 11.5071 24.4662 11.5128 24.4696 11.5173C24.4899 11.5421 24.5102 11.568 24.5305 11.5928C24.5327 11.5951 24.5338 11.5973 24.5361 11.6007C25.0219 12.241 25.1606 13.1157 24.686 13.8192C24.6871 13.8192 24.6894 13.818 24.6905 13.818C24.6623 13.8597 24.633 13.9015 24.6003 13.942C24.6003 13.942 22.861 13.4314 23.3626 14.5203C23.7278 15.3128 24.9735 15.0197 25.5439 14.6872C27.5279 13.5317 27.3035 9.96279 25.1414 9.14777C20.7676 7.49971 17.1288 11.8904 17.1818 15.8877C17.2269 19.2763 19.1692 21.9862 22.0336 23.393C22.1508 23.5362 22.2804 23.6703 22.4213 23.7898L1.77545 68.2425H0L0.0383271 68.4104C0.88265 72.1101 2.90609 75.0568 6.06808 77.2043C6.07033 77.2054 6.07259 77.2065 6.07371 77.2088C6.2552 77.3316 6.44007 77.4522 6.62946 77.5695C6.652 77.5841 6.67567 77.5977 6.69822 77.6123C6.8752 77.7217 7.05556 77.8288 7.23931 77.9336C7.25058 77.9404 7.26185 77.9471 7.27313 77.9528C7.45912 78.0576 7.64851 78.1602 7.84014 78.2605C7.88185 78.2819 7.92469 78.3045 7.96639 78.3259C8.16028 78.4251 8.3553 78.5232 8.55483 78.6179C10.8962 79.7271 13.6929 80.5162 16.9146 80.9806C16.9327 80.9828 16.9507 80.9862 16.9699 80.9885C17.1006 81.0076 17.2337 81.0257 17.3655 81.0426C17.4027 81.0471 17.4411 81.0527 17.4783 81.0573C17.5989 81.073 17.7206 81.0877 17.8435 81.1035C17.8942 81.1091 17.9438 81.1159 17.9946 81.1215C18.1084 81.135 18.2234 81.1474 18.3384 81.161C18.3981 81.1677 18.4579 81.1745 18.5187 81.1813C18.6281 81.1925 18.7374 81.2038 18.8468 81.2151C18.9144 81.2218 18.9809 81.2286 19.0486 81.2354C19.1534 81.2455 19.2594 81.2545 19.3653 81.2647C19.4386 81.2714 19.513 81.2771 19.5874 81.2838C19.6888 81.2929 19.7914 81.3007 19.894 81.3086C19.9729 81.3143 20.0529 81.321 20.1319 81.3267C20.2311 81.3334 20.3314 81.3413 20.4317 81.3481C20.5163 81.3537 20.6008 81.3594 20.6865 81.365C20.7834 81.3706 20.8804 81.3774 20.9773 81.383C21.0675 81.3887 21.1577 81.3932 21.2479 81.3977C21.3425 81.4022 21.4361 81.4078 21.5308 81.4123C21.6266 81.4168 21.7224 81.4214 21.8194 81.4247C21.9107 81.4281 22.0009 81.4326 22.0922 81.436C22.1936 81.4394 22.2962 81.4428 22.3988 81.4462C22.4867 81.4495 22.5735 81.4518 22.6614 81.454C22.7719 81.4574 22.8835 81.4597 22.994 81.4619C23.0752 81.4642 23.1552 81.4653 23.2375 81.4676C23.3637 81.4698 23.4911 81.471 23.6185 81.4732C23.6861 81.4743 23.7526 81.4755 23.8203 81.4755C24.0164 81.4777 24.2126 81.4777 24.411 81.4777C24.6094 81.4777 24.8055 81.4766 25.0017 81.4755C25.0073 81.4755 25.0129 81.4755 25.0186 81.4755C25.0806 81.4743 25.1414 81.4732 25.2034 81.4732C25.3308 81.4721 25.4582 81.4698 25.5844 81.4676C25.6656 81.4664 25.7468 81.4642 25.8279 81.4619C25.9395 81.4597 26.05 81.4574 26.1605 81.454C26.2484 81.4518 26.3363 81.4484 26.4231 81.4462C26.5257 81.4428 26.6272 81.4394 26.7286 81.436C26.8199 81.4326 26.9112 81.4281 27.0025 81.4247C27.0984 81.4202 27.1953 81.4168 27.29 81.4123C27.3847 81.4078 27.4794 81.4033 27.5729 81.3977C27.6631 81.3932 27.7533 81.3887 27.8424 81.383C27.9404 81.3774 28.0374 81.3718 28.1343 81.365C28.2189 81.3594 28.3034 81.3548 28.388 81.3481C28.4883 81.3413 28.5886 81.3346 28.6878 81.3267C28.7667 81.321 28.8468 81.3154 28.9257 81.3086C29.0282 81.3007 29.1308 81.2917 29.2334 81.2838C29.3067 81.2771 29.3811 81.2714 29.4544 81.2647C29.5603 81.2557 29.6663 81.2455 29.7722 81.2354C29.8399 81.2286 29.9064 81.2218 29.9729 81.2162C30.0834 81.2049 30.1927 81.1937 30.3021 81.1824C30.3618 81.1756 30.4215 81.1688 30.4813 81.1632C30.5963 81.1508 30.7113 81.1373 30.8262 81.1238C30.877 81.1181 30.9266 81.1114 30.9762 81.1057C31.099 81.0911 31.2208 81.0753 31.3425 81.0595C31.3797 81.055 31.4169 81.0494 31.4541 81.0448C31.5871 81.0268 31.7202 81.0088 31.852 80.9907C31.8701 80.9885 31.887 80.9851 31.905 80.9829C35.1279 80.5184 37.9258 79.7293 40.2671 78.6201C40.4666 78.5254 40.6628 78.4273 40.8555 78.3281C40.8984 78.3067 40.9401 78.2842 40.9818 78.2628C41.1734 78.1624 41.3628 78.0599 41.5488 77.955C41.5601 77.9483 41.5713 77.9415 41.5837 77.9347C41.7675 77.8299 41.9467 77.7228 42.1237 77.6134C42.1474 77.5988 42.1699 77.5853 42.1936 77.5706C42.3819 77.4534 42.5667 77.3328 42.7482 77.2099C42.7505 77.2076 42.7527 77.2065 42.7561 77.2043C45.917 75.0579 47.9415 72.1101 48.7847 68.4116L48.8231 68.2436H47.0476L26.617 24.2644C35.3601 23.3829 49.1184 10.6369 58.7554 12.002C66.4817 13.0966 70.7101 16.8831 72.4506 18.8795L69.2649 88.2526C69.2649 88.2526 69.1657 88.9188 69.1939 89.7891H59.1736C59.1736 89.7891 47.2359 90.0573 43.9747 94.6307H43.4629C42.8181 94.6307 42.2894 95.1582 42.2894 95.8042C42.2894 96.4489 42.817 96.9776 43.4629 96.9776H104.809C105.454 96.9776 105.982 96.4501 105.982 95.8042C105.982 95.1594 105.455 94.6307 104.809 94.6307H104.023C100.763 90.0562 88.8241 89.7891 88.8241 89.7891H78.8038C78.832 88.9188 78.7328 88.2526 78.7328 88.2526L75.5483 18.8795C77.2888 16.8831 81.5172 13.0966 89.2435 12.002C98.8816 10.6358 112.639 23.3818 121.382 24.2644L100.951 68.2425H99.1758L99.2141 68.4104C100.057 72.109 102.082 75.0557 105.243 77.2031C105.246 77.2054 105.248 77.2065 105.252 77.2088C105.432 77.3316 105.617 77.4511 105.805 77.5684C105.829 77.583 105.853 77.5977 105.876 77.6123C106.052 77.7205 106.231 77.8276 106.414 77.9325C106.426 77.9392 106.438 77.946 106.45 77.9528C106.635 78.0576 106.824 78.1602 107.016 78.2605C107.058 78.283 107.1 78.3045 107.143 78.3259C107.336 78.4251 107.532 78.5232 107.732 78.6179C110.072 79.7271 112.869 80.515 116.089 80.9795C116.108 80.9817 116.128 80.9851 116.147 80.9885C116.278 81.0076 116.408 81.0246 116.54 81.0426C116.579 81.0482 116.617 81.0527 116.655 81.0584C116.776 81.0742 116.896 81.0888 117.018 81.1035C117.069 81.1102 117.12 81.1159 117.171 81.1226C117.285 81.1362 117.399 81.1486 117.514 81.1621C117.575 81.1688 117.635 81.1756 117.696 81.1824C117.804 81.1937 117.913 81.2049 118.024 81.2162C118.091 81.223 118.159 81.2297 118.227 81.2365C118.331 81.2466 118.437 81.2557 118.543 81.2658C118.618 81.2726 118.691 81.2793 118.765 81.285C118.867 81.294 118.969 81.3019 119.072 81.3098C119.151 81.3154 119.231 81.3222 119.311 81.3278C119.41 81.3346 119.509 81.3425 119.61 81.3492C119.694 81.3548 119.779 81.3605 119.865 81.3661C119.961 81.3718 120.058 81.3785 120.155 81.3842C120.246 81.3898 120.336 81.3943 120.426 81.3988C120.519 81.4033 120.614 81.409 120.709 81.4135C120.805 81.418 120.9 81.4225 120.997 81.4259C121.089 81.4292 121.179 81.4338 121.27 81.4371C121.372 81.4405 121.474 81.4439 121.577 81.4473C121.665 81.4507 121.752 81.4529 121.84 81.4552C121.95 81.4586 122.062 81.4608 122.172 81.4631C122.253 81.4653 122.333 81.4664 122.416 81.4687C122.542 81.471 122.669 81.4721 122.797 81.4743C122.864 81.4755 122.931 81.4766 122.998 81.4766C123.194 81.4789 123.391 81.4789 123.589 81.4789C123.787 81.4789 123.984 81.4777 124.18 81.4766C124.185 81.4766 124.191 81.4766 124.197 81.4766C124.259 81.4755 124.319 81.4743 124.381 81.4743C124.509 81.4732 124.636 81.471 124.763 81.4687C124.844 81.4676 124.925 81.4653 125.006 81.4631C125.118 81.4608 125.228 81.4586 125.339 81.4552C125.426 81.4529 125.514 81.4495 125.601 81.4473C125.704 81.4439 125.805 81.4405 125.907 81.4371C125.998 81.4338 126.089 81.4292 126.181 81.4259C126.276 81.4214 126.373 81.418 126.468 81.4135C126.563 81.409 126.657 81.4044 126.751 81.3988C126.841 81.3943 126.931 81.3898 127.02 81.3842C127.118 81.3785 127.215 81.3729 127.312 81.3661C127.397 81.3605 127.481 81.356 127.566 81.3492C127.666 81.3425 127.767 81.3357 127.866 81.3278C127.945 81.3222 128.025 81.3165 128.104 81.3098C128.206 81.3019 128.309 81.2928 128.411 81.285C128.486 81.2782 128.559 81.2726 128.632 81.2658C128.738 81.2568 128.844 81.2466 128.95 81.2365C129.018 81.2297 129.084 81.223 129.152 81.2162C129.263 81.2049 129.372 81.1937 129.481 81.1824C129.541 81.1756 129.602 81.1688 129.662 81.1621C129.777 81.1497 129.892 81.1362 130.005 81.1226C130.056 81.117 130.106 81.1102 130.156 81.1046C130.278 81.0899 130.401 81.0742 130.522 81.0584C130.559 81.0539 130.597 81.0482 130.634 81.0437C130.767 81.0257 130.899 81.0076 131.03 80.9896C131.048 80.9874 131.067 80.984 131.085 80.9817C133.618 80.6165 135.89 80.0517 137.882 79.2863C138.424 79.0789 138.945 78.8557 139.445 78.619C139.645 78.5243 139.84 78.4262 140.034 78.327C140.076 78.3056 140.119 78.283 140.161 78.2616C140.353 78.1613 140.542 78.0587 140.727 77.9539C140.739 77.9471 140.751 77.9404 140.763 77.9336C140.946 77.8299 141.125 77.7228 141.301 77.6134C141.324 77.5988 141.348 77.5841 141.372 77.5695C141.56 77.4522 141.745 77.3316 141.925 77.2099C141.929 77.2076 141.931 77.2054 141.934 77.2043C145.095 75.0579 147.118 72.1101 147.962 68.4116L148 68.2436H146.223V68.2425ZM145.009 68.2425H124.15V24.4673C124.309 24.438 124.465 24.3941 124.615 24.3411L145.009 68.2425ZM23.384 24.3399C23.5339 24.3941 23.6884 24.4369 23.8485 24.4662V68.2425H2.98951L23.384 24.3399ZM24.9487 68.2425V24.4707C25.1178 24.4403 25.2801 24.3963 25.4379 24.3399L45.8335 68.2425H24.9487ZM122.56 24.3399C122.718 24.3963 122.881 24.4403 123.049 24.4707V68.2425H102.165L122.56 24.3399Z" fill="white"/>
</svg>
